<?xml version="1.0" encoding="UTF-8"?>
<svg xmlns="http://www.w3.org/2000/svg" viewBox="0 0 1024 1024" role="img" aria-label="Drovyu app icon">
  <defs>
    <filter id="soft-shadow" x="-20%" y="-20%" width="140%" height="140%">
      <feDropShadow dx="0" dy="18" stdDeviation="22" flood-color="#102E8A" flood-opacity=".28"/>
    </filter>
  </defs>

  <rect width="1024" height="1024" rx="224" fill="#A259FF"/>

  <g opacity=".42">
    <circle cx="512" cy="512" r="445" fill="#FFFFFF" fill-opacity=".08" stroke="#FFFFFF" stroke-opacity=".16" stroke-width="2"/>
    <circle cx="512" cy="512" r="360" fill="none" stroke="#FFFFFF" stroke-width="3" opacity=".18"/>
    <circle cx="512" cy="512" r="276" fill="none" stroke="#FFFFFF" stroke-width="3" opacity=".12"/>
  </g>

  <g transform="translate(198 214) scale(1.81)" filter="url(#soft-shadow)">
    <path fill="#00D084" d="M332.13,70.64l-50.04.04c-2.21,0-4.01-1.8-4-4.01l.12-50.71c0-3.57,4.34-5.34,6.85-2.8l49.92,50.67c2.49,2.53.7,6.8-2.85,6.81Z"/>
    <path fill="#FFFFFF" d="M346.87,87.48l-.04,149.4c0,3.28-3.74,5.17-6.38,3.21l-43.33-32.05-146.46-107.73c-1.03-.75-1.63-1.95-1.63-3.23l.07-93.09C149.11,1.79,150.9,0,153.11,0l108.55.03c2.21,0,4,1.79,4,4l-.07,75.2c0,2.21,1.78,4,3.99,4l73.31.24c2.2,0,3.99,1.8,3.99,4Z"/>
    <path fill="#FFFFFF" d="M201.34,242.31L29.03,120.5C12.8,109.02,2.3,92.03.6,71.98c0-.1-.01-.19-.02-.29-.22-10.23-.93-20.1-.38-30.91.16-3.13,3.72-4.85,6.29-3.06l235.27,164.33c1.07.75,1.71,1.97,1.71,3.28v59.22c.01,3.25-3.66,5.14-6.31,3.26l-35.83-25.5Z"/>
    <path fill="#FFFFFF" d="M207.07,332.26L54.36,223.69c-.17-.12-.33-.26-.48-.4-12.09-11.63-19.71-26.29-19.6-42.96l.14-22.35c.02-3.24,3.67-5.11,6.31-3.24l199.61,141.59c1.42,1.01,2.04,2.82,1.51,4.47-4.73,14.76-15.5,26.93-31.18,31.98-1.22.39-2.55.2-3.59-.54Z"/>
    <path fill="#FFFFFF" d="M108.54,330.81l-28.07-19.96c-12.75-9.06-15.47-27.69-14.65-44.47.16-3.17,3.72-4.94,6.31-3.1l90.08,63.89c3.16,2.24,1.6,7.23-2.28,7.26l-40.37.39c-4.21.04-7.87-1.73-11.03-4.01Z"/>
  </g>
</svg>
